<?xml version="1.0" encoding="UTF-8"?>
<svg id="Calque_2" data-name="Calque 2" xmlns="http://www.w3.org/2000/svg" viewBox="0 0 65.26 65.37">
  <defs>
    <style>
      .cls-1 {
        fill: none;
        stroke: #e4c100;
        stroke-miterlimit: 10;
        stroke-width: 2.98px;
      }

      .cls-2 {
        fill: #e4c100;
      }
    </style>
  </defs>
  <g id="Footer">
    <g>
      <rect class="cls-1" x="1.49" y="1.49" width="62.27" height="62.39" rx="12.87" ry="12.87"/>
      <path class="cls-2" d="m34.51,63.76c.08-7.71.16-15.41.24-23.12h-8.49v-10.38h8.73v-9.2c.17-.82,1.43-6.57,7.08-9.67,6.08-3.35,12.08-.77,12.74-.47v8.96c-.48-.22-3.82-1.69-7.08,0-1.5.78-2.38,1.91-2.83,2.59-.08,2.75-.16,5.5-.24,8.26,3.38.08,6.76.16,10.14.24-.39,3.22-.79,6.45-1.18,9.67-2.91.16-5.82.31-8.73.47v22.41c-3.46.08-6.92.16-10.38.24Z"/>
    </g>
  </g>
</svg>