<?xml version="1.0" encoding="UTF-8"?>
<svg id="Calque_2" data-name="Calque 2" xmlns="http://www.w3.org/2000/svg" viewBox="0 0 283.27 140.88">
  <defs>
    <style>
      .cls-1 {
        fill: #e4c100;
      }
    </style>
  </defs>
  <g id="Header">
    <g>
      <g>
        <path class="cls-1" d="m80.1,91.06c0-1.98-.74-7.94-.74-13.95v-17.36c0-4.03-.12-8-1.18-9.73,0-2.42,2.48-4.77,9.8-4.77,2.48,0,8.49,1.49,10.66,3.29-.81,2.36-1.18,5.77-1.18,10.42v24.49c0,12.46-11.66,18.78-20.52,18.78-6.08,0-10.79-2.23-10.79-6.76,0-4.09,4.77-6.63,8.12-6.63.81,2.67,2.67,4.77,4.4,4.77.87,0,1.43-.56,1.43-2.54Z"/>
        <path class="cls-1" d="m115.87,45.92c6.14,0,11.84,3.29,13.39,6.57.93,1.98,9.61,28.89,10.35,30.56.43,1.3,1.74,2.73,1.74,4.09s-2.85,2.05-9.42,2.05c-5.02,0-7.5-.19-8.62-.37-1.12-.19-1.49-.5-1.49-1.18,0-.37.19-.93.19-1.36,0-.37-.06-.87-.12-1.12l-1.05-3.35h-8.93l-.87,2.67c-.25.68-.37,1.24-.37,1.86,0,.5.12,1.3.12,1.61,0,.43-.62.93-1.18.99s-1.74.25-4.03.25c-2.91,0-3.97-.06-4.71-.19-.5-.06-.93-.25-.93-.68,0-.5.43-.87.87-1.86.5-1.24,10.17-30.38,10.48-31.56.56-2.11.93-3.91,1.12-5.52.19-1.74,1.55-3.47,3.47-3.47Zm.56,17.86l-2.54,11.96h4.96l-2.42-11.96Z"/>
        <path class="cls-1" d="m197.09,76.36c0,5.77.74,9.92.74,11.16,0,.56-.56,1.05-1.18,1.18-1.61.25-3.97.5-7.81.5s-8.18-.37-9.17-.62c-.62-.12-.93-.56-.93-1.3,0-.99.68-6.63.68-10.66v-4.71l-7.81,16.74c-.43.99-1.3,1.49-2.11,1.49s-1.61-.5-2.11-1.49l-9.8-17.92v11.41c0,2.85,1.18,4.84,1.18,5.52,0,.62-.31.87-.93,1.05-.74.19-3.29.5-6.45.5-3.35,0-5.58-.19-6.45-.5-.62-.25-.93-.56-.93-1.36,0-.99.8-5.27.8-7.56v-20.02c0-4.03-.99-8-2.04-9.73,0-2.42,6.51-4.77,11.47-4.77,2.29,0,7.69,1.3,10.11,5.27l8.06,15,7.69-16c1.3-2.73,3.84-4.28,8.31-4.28s8.37,1.36,9.86,3.29c-.81,2.36-1.18,5.77-1.18,10.42v17.42Z"/>
      </g>
      <g>
        <path class="cls-1" d="m1.36,138.28c0-.99.74-3.41.74-6.82v-21.14c0-4.09-.99-8-2.11-9.73,0-1.24,2.23-2.6,4.77-2.91,3.53-.37,7.19-.62,10.85-.62s7.32.25,11.1.62c1.98,0,3.84,2.54,3.84,5.77,0,5.7-1.86,8.8-2.48,8.8-.5,0-.99-.25-1.36-.62-.87-.99-3.84-2.91-6.94-3.41v8.31c2.54,0,4.4-1.18,5.83-1.18.99,0,2.11,1.49,2.11,2.79,0,2.11-.99,6.01-2.36,6.01-.25,0-.43-.12-.56-.31-1.43-1.24-2.54-1.3-5.02-1.3v9.3c0,2.79.62,5.64.62,6.45,0,.74-.25,1.24-.68,1.3-1.92.37-5.27.62-9.61.62-3.97,0-6.57-.37-7.87-.62-.56-.12-.87-.56-.87-1.3Z"/>
        <path class="cls-1" d="m51.46,115.96c2.54,0,5.64-1.05,7.01-1.05,1.05,0,2.17,1.49,2.17,2.73,0,2.17-1.05,6.08-2.36,6.08-.25,0-.43-.12-.62-.31-1.43-1.24-3.72-1.36-6.2-1.36v8.49c4.34,0,8.06-1.98,9.67-4.4.25-.12.5-.19.74-.19,1.24,0,2.23,3.22,2.23,6.88,0,4.53-1.55,6.51-3.16,6.76-2.73.37-8.56.62-14.76.62s-10.48-.37-12.4-.62c-.62-.06-.93-.56-.93-1.3,0-.99.93-6.51.93-10.54v-17.48c0-4.03-.56-7.94-1.61-9.73,0-1.24,1.8-2.48,4.34-2.85,3.72-.56,7.5-.62,11.22-.62s7.63.06,11.47.62c1.43,0,4.22,2.29,4.22,5.58,0,5.7-2.11,8.99-2.79,8.99-.37,0-.99-.31-1.36-.74-.81-.99-4.22-2.79-7.81-3.29v7.75Z"/>
        <path class="cls-1" d="m84.13,110.19c6.94,4.59,16.31,9.73,16.31,17.79,0,8.68-7.87,12.9-18.79,12.9-8.43,0-15.93-2.91-15.93-8.25,0-4.15,3.53-6.45,7.5-6.45,2.05,0,4.46,1.05,5.27,2.17-.31.81-.62,2.17-.62,3.41,0,1.49,1.36,2.91,2.79,2.91s3.04-1.3,3.04-3.72c0-2.23-1.43-4.09-3.47-5.15-5.89-3.04-14.2-8.56-14.2-17.11,0-7.75,8.74-12.34,17.73-12.34,8.25,0,14.14,3.53,14.14,8.12,0,3.78-2.98,6.2-6.45,6.2-2.23,0-4.09-1.24-4.53-2.05.25-.62.31-1.61.31-2.54,0-2.11-1.49-3.53-3.04-3.53-1.67,0-2.67,1.24-2.67,2.79,0,1.98,1.12,3.84,2.6,4.84Z"/>
        <path class="cls-1" d="m131.25,127.36c0,5.77.93,9.36.93,10.6,0,.99-.74,1.49-1.36,1.61-1.61.25-6.51.62-9.11.62s-6.82-.37-7.87-.62c-.62-.12-1.18-.62-1.18-1.49,0-.99.93-6.45.93-10.48v-19.09c-.19-.43-.43-.62-.74-.62-1.05,0-5.21,4.84-6.51,8.62-.37,1.05-.87,1.43-1.67,1.43-.68,0-1.8-1.3-2.36-2.54-.56-1.24-1.49-4.65-1.49-8.99,0-5.58,3.84-8,5.83-8.37,1.67-.31,7.94-.99,15.75-.99s14.76.43,16.49.99c2.42.81,5.33,2.11,5.33,8,0,4.28-1.18,7.69-1.61,8.8-.37.99-1.36,2.73-2.29,2.73-.99,0-1.55-.56-1.86-1.3-1.43-3.6-4.22-8.37-6.45-8.37-.31,0-.56.19-.74.62v18.85Z"/>
        <path class="cls-1" d="m164.61,127.36c0,5.77.81,9.92.81,11.16,0,.56-.62.93-1.18,1.05-1.61.37-4.09.62-8.25.62-4.59,0-7.81-.43-8.87-.62-.56-.12-.87-.56-.87-1.3,0-.99.68-6.63.68-10.66v-16.86c0-4.03-.56-7.32-1.61-9.18,0-2.42,2.48-4.65,9.8-4.65,2.48,0,8.56,1.43,10.66,3.22-.74,2.29-1.18,5.15-1.18,9.8v17.42Z"/>
        <path class="cls-1" d="m176.39,97.61c7.81,0,11.9,6.26,13.58,13.7,1.24,5.58,1.8,14.45,2.48,19.59.99-2.79,2.67-8.18,2.67-14.94,0-6.32-1.67-9.18-4.09-11.66-.31-.25-.5-.56-.5-.87,0-2.23,4.9-7.07,10.85-7.07,7.44,0,12.09,4.15,12.09,12.77,0,17.48-11.41,31.68-22.19,31.68-9.18,0-14.63-8.62-18.17-20.27-1.8-5.95-4.77-14.69-6.57-17.85,0-2.91,4.96-5.08,9.86-5.08Z"/>
        <path class="cls-1" d="m226.11,96.92c6.14,0,11.84,3.29,13.39,6.57.93,1.98,9.61,28.89,10.35,30.56.43,1.3,1.74,2.73,1.74,4.09s-2.85,2.05-9.42,2.05c-5.02,0-7.5-.19-8.62-.37-1.12-.19-1.49-.5-1.49-1.18,0-.37.19-.93.19-1.36,0-.37-.06-.87-.12-1.12l-1.05-3.35h-8.93l-.87,2.67c-.25.68-.37,1.24-.37,1.86,0,.5.12,1.3.12,1.61,0,.43-.62.93-1.18.99s-1.74.25-4.03.25c-2.91,0-3.97-.06-4.71-.19-.5-.06-.93-.25-.93-.68,0-.5.43-.87.87-1.86.5-1.24,10.17-30.38,10.48-31.56.56-2.11.93-3.91,1.12-5.52.19-1.74,1.55-3.47,3.47-3.47Zm.56,17.86l-2.54,11.96h4.96l-2.42-11.96Z"/>
        <path class="cls-1" d="m272.3,130.53c3.1,0,6.01-3.1,7.63-5.52.31-.19.62-.37,1.12-.37,1.24,0,2.23,4.22,2.23,7.94,0,4.4-2.6,7.63-6.32,7.63s-8.87-.62-11.72-.62h-9.67c-.93,0-1.61-.43-1.61-1.05,0-2.11.68-2.11.68-4.46v-25.73c0-2.48-.99-5.33-1.98-6.26,0-3.72,3.72-5.7,9.42-5.7,5.02,0,9.36,1.24,11.34,3.22-.81,1.05-1.12,3.16-1.12,5.7v25.23Z"/>
      </g>
      <g>
        <path class="cls-1" d="m46.81,13.43c6.75,4.46,15.84,9.46,15.84,17.29,0,8.43-7.65,12.53-18.25,12.53-8.19,0-15.48-2.83-15.48-8.01,0-4.04,3.43-6.27,7.29-6.27,1.99,0,4.34,1.02,5.12,2.11-.3.78-.6,2.11-.6,3.31,0,1.45,1.33,2.83,2.71,2.83s2.95-1.26,2.95-3.61c0-2.17-1.39-3.98-3.37-5-5.72-2.95-13.8-8.31-13.8-16.63,0-7.53,8.49-11.99,17.23-11.99,8.01,0,13.74,3.43,13.74,7.89,0,3.67-2.89,6.02-6.27,6.02-2.17,0-3.98-1.2-4.4-1.99.24-.6.3-1.57.3-2.47,0-2.05-1.45-3.43-2.95-3.43-1.63,0-2.59,1.21-2.59,2.71,0,1.93,1.08,3.73,2.53,4.7Z"/>
        <path class="cls-1" d="m92.59,30.12c0,5.6.9,9.1.9,10.3,0,.96-.72,1.45-1.33,1.57-1.57.24-6.33.6-8.86.6s-6.63-.36-7.65-.6c-.6-.12-1.14-.6-1.14-1.45,0-.96.9-6.27.9-10.18V11.81c-.18-.42-.42-.6-.72-.6-1.02,0-5.06,4.7-6.33,8.37-.36,1.02-.84,1.39-1.63,1.39-.66,0-1.75-1.27-2.29-2.47-.54-1.21-1.45-4.52-1.45-8.74,0-5.42,3.74-7.77,5.66-8.13,1.63-.3,7.71-.96,15.3-.96s14.34.42,16.02.96c2.35.78,5.18,2.05,5.18,7.77,0,4.16-1.14,7.47-1.57,8.55-.36.96-1.33,2.65-2.23,2.65-.96,0-1.51-.54-1.81-1.27-1.39-3.49-4.1-8.13-6.27-8.13-.3,0-.54.18-.72.6v18.31Z"/>
        <path class="cls-1" d="m135.53,23.67c3.13,5.6,9.88,13.43,12.11,15.12,0,2.83-5.36,4.46-8.8,4.46-3.13,0-6.27-.78-7.23-1.63-1.81-1.57-5.24-9.88-6.63-16.39v4.88c0,5.6.78,9.64.78,10.84,0,.54-.54.84-1.14,1.02-1.14.3-3.73.6-8.01.6s-7.59-.36-8.61-.6c-.54-.12-.84-.54-.84-1.27,0-.96.66-6.45.66-10.36V13.55c0-3.92-.42-7.11-1.27-8.92.84-1.93,5.18-4.1,10.06-4.1h8.31c11.08,0,19.04,4.28,19.04,11.14,0,6.15-3.67,10.66-8.43,11.99Zm-10.54-13.67v11.81c1.81-.78,4.22-2.83,4.22-6.33,0-2.71-1.81-4.82-4.22-5.48Z"/>
        <path class="cls-1" d="m167.34,19.04c2.47,0,5.48-1.02,6.81-1.02,1.02,0,2.11,1.45,2.11,2.65,0,2.11-1.02,5.9-2.29,5.9-.24,0-.42-.12-.6-.3-1.39-1.2-3.62-1.33-6.02-1.33v8.25c4.22,0,7.83-1.93,9.4-4.28.24-.12.48-.18.72-.18,1.21,0,2.17,3.13,2.17,6.69,0,4.4-1.51,6.33-3.07,6.57-2.65.36-8.31.6-14.34.6s-10.18-.36-12.05-.6c-.6-.06-.9-.54-.9-1.27,0-.96.9-6.33.9-10.24V13.49c0-3.92-.54-7.71-1.57-9.46,0-1.21,1.75-2.41,4.22-2.77,3.62-.54,7.29-.6,10.9-.6s7.41.06,11.14.6c1.39,0,4.1,2.23,4.1,5.42,0,5.54-2.05,8.74-2.71,8.74-.36,0-.96-.3-1.33-.72-.78-.96-4.1-2.71-7.59-3.19v7.53Z"/>
        <path class="cls-1" d="m200.29,19.04c2.47,0,5.48-1.02,6.81-1.02,1.02,0,2.11,1.45,2.11,2.65,0,2.11-1.02,5.9-2.29,5.9-.24,0-.42-.12-.6-.3-1.39-1.2-3.62-1.33-6.02-1.33v8.25c4.22,0,7.83-1.93,9.4-4.28.24-.12.48-.18.72-.18,1.21,0,2.17,3.13,2.17,6.69,0,4.4-1.51,6.33-3.07,6.57-2.65.36-8.31.6-14.34.6s-10.18-.36-12.05-.6c-.6-.06-.9-.54-.9-1.27,0-.96.9-6.33.9-10.24V13.49c0-3.92-.54-7.71-1.57-9.46,0-1.21,1.75-2.41,4.22-2.77,3.62-.54,7.29-.6,10.9-.6s7.41.06,11.14.6c1.39,0,4.1,2.23,4.1,5.42,0,5.54-2.05,8.74-2.71,8.74-.36,0-.96-.3-1.33-.72-.78-.96-4.1-2.71-7.59-3.19v7.53Z"/>
        <path class="cls-1" d="m242.63,30.12c0,5.6.9,9.1.9,10.3,0,.96-.72,1.45-1.33,1.57-1.57.24-6.33.6-8.86.6s-6.63-.36-7.65-.6c-.6-.12-1.14-.6-1.14-1.45,0-.96.9-6.27.9-10.18V11.81c-.18-.42-.42-.6-.72-.6-1.02,0-5.06,4.7-6.33,8.37-.36,1.02-.84,1.39-1.63,1.39-.66,0-1.75-1.27-2.29-2.47-.54-1.21-1.45-4.52-1.45-8.74,0-5.42,3.73-7.77,5.66-8.13,1.63-.3,7.71-.96,15.3-.96s14.34.42,16.02.96c2.35.78,5.18,2.05,5.18,7.77,0,4.16-1.14,7.47-1.57,8.55-.36.96-1.33,2.65-2.23,2.65-.96,0-1.51-.54-1.81-1.27-1.39-3.49-4.1-8.13-6.27-8.13-.3,0-.54.18-.72.6v18.31Z"/>
      </g>
    </g>
  </g>
</svg>