<?xml version="1.0" encoding="UTF-8"?>
<svg id="Calque_2" data-name="Calque 2" xmlns="http://www.w3.org/2000/svg" viewBox="0 0 64.79 64.9">
  <defs>
    <style>
      .cls-1 {
        fill: #e4c100;
      }

      .cls-2 {
        fill: #a755b5;
      }

      .cls-3 {
        fill: none;
        stroke: #e4c100;
        stroke-miterlimit: 10;
        stroke-width: 2.96px;
      }
    </style>
  </defs>
  <g id="Footer">
    <g>
      <rect class="cls-3" x="1.48" y="1.48" width="61.82" height="61.94" rx="12.78" ry="12.78"/>
      <path class="cls-1" d="m32.01,46.04c-10.86-.13-15.47.56-18.08-2.65-.79-.97-1.42-2.3-1.46-2.42-.89-2.47-.94-4.64-.96-8.52-.01-3.49,0-6.73.92-9.52.24-.73.63-1.7,1.5-2.57.22-.22,1.02-.98,2.42-1.46,3.67-1.26,13.16-1.19,14.74-1.18,2.39,0,12.16-.06,15.97,1.15,1.43.45,2.22,1.15,2.57,1.5.82.82,1.22,1.72,1.46,2.42,1,2.82,1,6.42.96,9.22-.1,6.51-.44,8.19-1.61,9.91-.04.06-.61.88-1.38,1.61-3.35,3.16-8.52,2.64-17.05,2.53Z"/>
      <polygon class="cls-2" points="27.7 25.9 27.7 37.84 37.54 31.99 27.7 25.9"/>
    </g>
  </g>
</svg>